<svg xmlns="http://www.w3.org/2000/svg" width="1373" height="1392" viewBox="0 0 1373 1392" version="1.1"><path d="M 681.447 1.024 C 679.218 1.466, 665.043 3.460, 649.947 5.454 C 567.649 16.327, 542.668 20.756, 508.493 30.535 C 401.330 61.199, 303.198 115.488, 224.540 187.625 C 130.338 274.017, 64.071 380.981, 28.537 504 C -1.178 606.870, -7.576 721.699, 10.594 826 C 25.680 912.598, 59.722 997.752, 108.337 1070.500 C 162.547 1151.619, 240.364 1228.334, 325.500 1284.586 C 491.667 1394.378, 680.577 1419.954, 886 1360.471 C 1035.494 1317.182, 1153.765 1237.639, 1239.833 1122.500 C 1296.506 1046.686, 1337.786 958.639, 1367.686 849.808 C 1372.211 833.336, 1372.442 831.872, 1372.470 819.500 C 1372.498 807.455, 1372.303 806.080, 1369.819 800.780 C 1364.787 790.044, 1353.335 781.793, 1339 778.575 C 1328.281 776.168, 1307.356 775, 1275.050 775.003 C 1242.240 775.007, 1228.394 775.886, 1209.500 779.163 C 1149.219 789.620, 1099.596 820.331, 1062.420 870.191 C 1043.180 895.995, 1027.646 926.052, 983.703 1022.500 C 923.069 1155.582, 906.536 1188.537, 890.138 1209 C 879.750 1221.962, 866.691 1231.222, 855 1233.915 C 830.775 1239.494, 803.960 1222.308, 779.423 1185.477 C 738.884 1124.624, 739.067 1051.408, 779.917 988.752 C 793.055 968.600, 808.217 949.574, 843.470 909 C 864.572 884.714, 878.279 868.097, 881.802 862.533 C 885.623 856.499, 888.955 846.168, 888.979 840.285 C 888.997 835.868, 888.528 834.532, 885.914 831.555 C 881.926 827.012, 872.007 822.161, 863.898 820.787 L 857.500 819.704 832 827.958 C 773.162 847.004, 750.535 857.741, 723.500 879.443 C 702.562 896.251, 688.612 910.191, 645.679 957.209 C 623.518 981.478, 612.104 992.561, 599.727 1001.830 C 553.165 1036.698, 510.701 1036.507, 468.729 1001.239 C 437.808 975.257, 410.497 926.916, 405.035 888.500 C 401.939 866.728, 406.073 843.231, 416.549 823.055 C 432.521 792.294, 461.472 771.489, 497.926 764.574 C 503.352 763.544, 520.032 762.488, 546.352 761.506 C 643.271 757.892, 670.680 754.573, 707.521 741.990 C 741.053 730.537, 777.140 707.118, 800.823 681.440 C 822.493 657.943, 826.843 638.404, 815.529 615.388 C 805.830 595.658, 789.655 586.727, 769.329 589.881 C 765.510 590.474, 753.636 593.609, 742.943 596.848 C 695.295 611.283, 639.951 624.087, 605.760 628.585 C 589.229 630.759, 547.061 631.584, 529.910 630.067 C 486.182 626.201, 444.531 613.640, 406.926 592.977 C 390.055 583.707, 378.637 575.418, 369.201 565.589 C 355.562 551.382, 347.210 536.690, 342.266 518.206 C 339.942 509.516, 339.665 506.615, 339.616 490.500 C 339.570 475.120, 339.884 471.218, 341.776 463.693 C 349.314 433.702, 367.045 412.044, 395.969 397.495 C 408.954 390.964, 439.421 382.592, 461.695 379.435 C 475.576 377.468, 498.144 377.450, 508.221 379.399 C 527.020 383.035, 567.251 396.072, 610.878 412.666 C 677.519 438.013, 700.442 446.378, 730.500 456.314 C 789.834 475.928, 848.537 492.594, 855.165 491.705 C 861.518 490.853, 887.647 477.083, 887.328 474.755 C 886.921 471.792, 878.085 449.822, 875.581 445.549 C 872.240 439.847, 852.259 423.720, 795 380.511 C 746.203 343.688, 738.581 337.439, 723.485 321.882 C 699.256 296.914, 681.602 269.385, 669.900 238.326 C 657.342 204.993, 657.043 179.088, 668.953 156.213 C 676.759 141.220, 687.703 130.570, 704 122.107 C 733.357 106.862, 784.340 102.576, 823 112.103 C 865.297 122.527, 903.423 152.098, 928.780 194.150 C 935.459 205.226, 962.264 259.340, 984.432 306.500 C 1009.518 359.866, 1030.640 402.883, 1037.490 414.554 C 1085.317 496.050, 1151.380 539.185, 1241.856 547.992 C 1247.552 548.546, 1261.857 549, 1273.645 549 C 1321.974 549, 1343.119 542.899, 1351.482 526.540 C 1354.318 520.995, 1354.497 519.969, 1354.442 509.569 C 1354.394 500.366, 1353.850 496.542, 1351.215 486.885 C 1343.154 457.347, 1318.602 400.935, 1297.409 363.259 C 1229.933 243.300, 1132.810 148.154, 1011.500 83.167 C 941.250 45.534, 860.184 18.832, 782 7.574 C 741.324 1.717, 693.612 -1.391, 681.447 1.024 M 683.500 5.523 C 682.950 5.724, 670.350 7.504, 655.500 9.478 C 560.591 22.094, 539.268 26.054, 496.770 38.954 C 306.673 96.661, 152.917 228.596, 70.763 404.500 C 13.315 527.506, -7.406 671.173, 12.566 808 C 18.072 845.718, 26.075 879.227, 38.481 916.500 C 72.762 1019.502, 130.173 1108.020, 216.527 1191.018 C 317.690 1288.250, 431.661 1350.447, 553.520 1374.922 C 621.886 1388.654, 697.018 1390.577, 770.500 1380.477 C 852.559 1369.198, 939.886 1342.552, 1010.500 1307.245 C 1091.535 1266.727, 1158.448 1214.037, 1215.268 1146 C 1277.509 1071.474, 1327.021 974.589, 1357.851 867 C 1368.049 831.409, 1369.809 821.717, 1367.930 811.500 C 1365 795.565, 1354.199 786.315, 1334 782.440 C 1322.602 780.254, 1248.673 779.197, 1231.190 780.970 C 1151.844 789.020, 1092.569 826.942, 1050.647 896.475 C 1039.633 914.744, 1016.173 962.628, 988.658 1023 C 916.967 1180.302, 905.728 1201.729, 884.248 1222.065 C 857.368 1247.514, 827.312 1245.226, 797.552 1215.466 C 779.949 1197.864, 764.620 1173.882, 755.705 1150 C 738.076 1102.776, 740.882 1054.190, 763.936 1007.500 C 776.749 981.549, 792.685 960.174, 838.117 908 C 875.550 865.012, 881.648 856.559, 883.893 844.544 C 885.363 836.677, 882.921 833.142, 872.824 828.520 C 861.951 823.542, 860.505 823.711, 830.394 833.483 C 767.510 853.891, 747.094 864.502, 713.286 894.347 C 698.819 907.117, 681.693 924.672, 655.571 953.503 C 616.820 996.273, 600.683 1010.109, 575.535 1022.122 C 560.195 1029.450, 548.458 1032.255, 533 1032.287 C 517.987 1032.319, 508.292 1030.120, 494.266 1023.500 C 481.566 1017.506, 471.415 1010.281, 459.146 998.500 C 441.501 981.559, 429.478 965.107, 418.220 942.500 C 396.571 899.030, 393.663 863.330, 408.891 828.007 C 424.392 792.053, 458.938 765.900, 499.344 759.530 C 504.420 758.730, 527.216 757.392, 550.500 756.527 C 634.183 753.422, 663.687 750.343, 693 741.660 C 733.646 729.621, 767.004 709.484, 795.626 679.712 C 808.540 666.278, 814.182 656.805, 816.169 645.222 C 819.289 627.026, 808.144 604.643, 792.256 597.197 C 787.088 594.776, 785.426 594.510, 776 594.594 C 766.441 594.680, 764.201 595.099, 751 599.274 C 700.199 615.340, 638.013 629.585, 598.500 634.207 C 581.913 636.148, 533.744 635.843, 517.784 633.697 C 480.047 628.622, 449.168 619.262, 416 602.843 C 384.280 587.142, 365.609 572.387, 352.607 552.748 C 335.871 527.469, 330.163 495.085, 336.956 463.960 C 343.625 433.405, 363.302 408.753, 393 393.748 C 405.577 387.393, 432.141 379.614, 455.500 375.445 C 467.921 373.228, 493.625 372.423, 503.920 373.928 C 527.560 377.385, 566.374 390.382, 658 425.522 C 691.796 438.484, 756.319 460.303, 791 470.498 C 823.652 480.097, 849.891 487, 853.725 487 C 857.185 487, 862.495 484.630, 874.500 477.729 C 878.350 475.516, 881.597 473.637, 881.716 473.553 C 882.139 473.255, 874.888 454.713, 872.524 450.048 C 868.925 442.946, 858.579 434.484, 793 385.012 C 744.532 348.447, 732.839 338.837, 718.561 323.831 C 699.628 303.933, 685.619 283.842, 674.401 260.500 C 661.279 233.196, 655.769 213.394, 655.760 193.500 C 655.749 169.353, 662.261 152.314, 677.765 135.925 C 697.639 114.919, 727.871 104.086, 771.500 102.340 C 831.741 99.928, 884.023 124.819, 920.369 173.213 C 934.436 191.942, 946.584 215.270, 988.995 305 C 1039.005 410.805, 1049.392 429.481, 1074.587 458.892 C 1113.801 504.671, 1166.026 532.893, 1227.492 541.522 C 1247.129 544.278, 1271.287 545.242, 1291.154 544.061 C 1325.465 542.022, 1340.834 536.701, 1347.294 524.624 C 1349.209 521.043, 1349.495 518.986, 1349.466 509 C 1349.426 495.657, 1347.311 486.848, 1338.537 463.468 C 1293.277 342.862, 1217.256 237.908, 1117.760 158.667 C 1004.161 68.193, 866.774 15.212, 722 6.048 C 706.127 5.043, 685.580 4.763, 683.500 5.523" stroke="none" fill="#060804" fill-rule="evenodd"/><path d="M 683.500 5.523 C 682.950 5.724, 670.350 7.504, 655.500 9.478 C 560.591 22.094, 539.268 26.054, 496.770 38.954 C 306.673 96.661, 152.917 228.596, 70.763 404.500 C 13.315 527.506, -7.406 671.173, 12.566 808 C 18.072 845.718, 26.075 879.227, 38.481 916.500 C 72.762 1019.502, 130.173 1108.020, 216.527 1191.018 C 317.690 1288.250, 431.661 1350.447, 553.520 1374.922 C 621.886 1388.654, 697.018 1390.577, 770.500 1380.477 C 852.559 1369.198, 939.886 1342.552, 1010.500 1307.245 C 1091.535 1266.727, 1158.448 1214.037, 1215.268 1146 C 1277.509 1071.474, 1327.021 974.589, 1357.851 867 C 1368.049 831.409, 1369.809 821.717, 1367.930 811.500 C 1365 795.565, 1354.199 786.315, 1334 782.440 C 1322.602 780.254, 1248.673 779.197, 1231.190 780.970 C 1151.844 789.020, 1092.569 826.942, 1050.647 896.475 C 1039.633 914.744, 1016.173 962.628, 988.658 1023 C 916.967 1180.302, 905.728 1201.729, 884.248 1222.065 C 857.368 1247.514, 827.312 1245.226, 797.552 1215.466 C 779.949 1197.864, 764.620 1173.882, 755.705 1150 C 738.076 1102.776, 740.882 1054.190, 763.936 1007.500 C 776.749 981.549, 792.685 960.174, 838.117 908 C 875.550 865.012, 881.648 856.559, 883.893 844.544 C 885.363 836.677, 882.921 833.142, 872.824 828.520 C 861.951 823.542, 860.505 823.711, 830.394 833.483 C 767.510 853.891, 747.094 864.502, 713.286 894.347 C 698.819 907.117, 681.693 924.672, 655.571 953.503 C 616.820 996.273, 600.683 1010.109, 575.535 1022.122 C 560.195 1029.450, 548.458 1032.255, 533 1032.287 C 517.987 1032.319, 508.292 1030.120, 494.266 1023.500 C 481.566 1017.506, 471.415 1010.281, 459.146 998.500 C 441.501 981.559, 429.478 965.107, 418.220 942.500 C 396.571 899.030, 393.663 863.330, 408.891 828.007 C 424.392 792.053, 458.938 765.900, 499.344 759.530 C 504.420 758.730, 527.216 757.392, 550.500 756.527 C 634.183 753.422, 663.687 750.343, 693 741.660 C 733.646 729.621, 767.004 709.484, 795.626 679.712 C 808.540 666.278, 814.182 656.805, 816.169 645.222 C 819.289 627.026, 808.144 604.643, 792.256 597.197 C 787.088 594.776, 785.426 594.510, 776 594.594 C 766.441 594.680, 764.201 595.099, 751 599.274 C 700.199 615.340, 638.013 629.585, 598.500 634.207 C 581.913 636.148, 533.744 635.843, 517.784 633.697 C 480.047 628.622, 449.168 619.262, 416 602.843 C 384.280 587.142, 365.609 572.387, 352.607 552.748 C 335.871 527.469, 330.163 495.085, 336.956 463.960 C 343.625 433.405, 363.302 408.753, 393 393.748 C 405.577 387.393, 432.141 379.614, 455.500 375.445 C 467.921 373.228, 493.625 372.423, 503.920 373.928 C 527.560 377.385, 566.374 390.382, 658 425.522 C 691.796 438.484, 756.319 460.303, 791 470.498 C 823.652 480.097, 849.891 487, 853.725 487 C 857.185 487, 862.495 484.630, 874.500 477.729 C 878.350 475.516, 881.597 473.637, 881.716 473.553 C 882.139 473.255, 874.888 454.713, 872.524 450.048 C 868.925 442.946, 858.579 434.484, 793 385.012 C 744.532 348.447, 732.839 338.837, 718.561 323.831 C 699.628 303.933, 685.619 283.842, 674.401 260.500 C 661.279 233.196, 655.769 213.394, 655.760 193.500 C 655.749 169.353, 662.261 152.314, 677.765 135.925 C 697.639 114.919, 727.871 104.086, 771.500 102.340 C 831.741 99.928, 884.023 124.819, 920.369 173.213 C 934.436 191.942, 946.584 215.270, 988.995 305 C 1039.005 410.805, 1049.392 429.481, 1074.587 458.892 C 1113.801 504.671, 1166.026 532.893, 1227.492 541.522 C 1247.129 544.278, 1271.287 545.242, 1291.154 544.061 C 1325.465 542.022, 1340.834 536.701, 1347.294 524.624 C 1349.209 521.043, 1349.495 518.986, 1349.466 509 C 1349.426 495.657, 1347.311 486.848, 1338.537 463.468 C 1293.277 342.862, 1217.256 237.908, 1117.760 158.667 C 1004.161 68.193, 866.774 15.212, 722 6.048 C 706.127 5.043, 685.580 4.763, 683.500 5.523" stroke="none" fill="#83fb04" fill-rule="evenodd"/></svg>