<svg xmlns="http://www.w3.org/2000/svg" width="500" height="500" viewBox="0 0 500 500" version="1.1"><path d="M 229.650 198.049 C 222.260 199.289, 214.834 203.425, 209.085 209.504 C 201.279 217.758, 199.500 222.396, 199.500 234.500 C 199.500 243.642, 199.757 245.003, 202.500 250.362 C 207.050 259.252, 215.354 266.442, 224.162 269.118 C 243.152 274.886, 263.474 265.713, 269.929 248.459 C 272.875 240.585, 272.735 240, 267.904 240 C 260.971 240, 258.414 242.347, 252.650 254 C 248.219 262.960, 247.074 264.545, 244.845 264.805 C 241.295 265.220, 238 260.985, 238 256.009 C 238 253.296, 238.948 251.046, 241.500 247.704 C 243.425 245.183, 245 242.879, 245 242.585 C 245 241.037, 238.923 244.729, 234.347 249.056 C 231.472 251.775, 228.620 254, 228.010 254 C 225.930 254, 221.062 250.984, 220.030 249.055 C 218.602 246.387, 218.743 241.734, 220.316 239.582 C 221.222 238.343, 224.204 237.370, 229.879 236.461 C 238.353 235.105, 241 233.867, 241 231.261 C 241 230.196, 240.353 229.943, 238.750 230.380 C 232.225 232.159, 225.870 232.222, 221.492 230.550 C 214.852 228.014, 212.764 222.161, 217.069 218.150 C 220.650 214.814, 224.352 214.785, 233.217 218.020 C 237.708 219.659, 242.013 221, 242.782 221 C 243.552 221, 241.666 218.621, 238.591 215.713 C 234.175 211.537, 233 209.783, 233 207.368 C 233 203.290, 235.735 201, 240.606 201 C 246.166 201, 248.498 203.049, 252.925 211.825 C 257.787 221.465, 260.521 224.079, 266.438 224.746 C 271.928 225.365, 272.225 224.325, 268.584 217.217 C 263.799 207.874, 253.013 200.089, 241.949 197.990 C 236.197 196.899, 236.510 196.898, 229.650 198.049 M 297.360 211 C 297.360 216.225, 297.529 218.363, 297.735 215.750 C 297.941 213.137, 297.941 208.863, 297.735 206.250 C 297.529 203.637, 297.360 205.775, 297.360 211 M 131.445 234 C 131.445 251.325, 131.582 258.413, 131.748 249.750 C 131.915 241.087, 131.915 226.912, 131.748 218.250 C 131.582 209.587, 131.445 216.675, 131.445 234 M 148.370 249 C 148.370 254.775, 148.535 257.137, 148.737 254.250 C 148.939 251.363, 148.939 246.637, 148.737 243.750 C 148.535 240.863, 148.370 243.225, 148.370 249 M 297.360 258 C 297.360 263.225, 297.529 265.363, 297.735 262.750 C 297.941 260.137, 297.941 255.863, 297.735 253.250 C 297.529 250.637, 297.360 252.775, 297.360 258 M 151.250 273.747 C 157.712 273.921, 168.287 273.921, 174.750 273.747 C 181.213 273.573, 175.925 273.430, 163 273.430 C 150.075 273.430, 144.787 273.573, 151.250 273.747" stroke="none" fill="#85f00f" fill-rule="evenodd"/><path d="M 82.536 196.124 C 79.255 196.596, 74.431 197.692, 71.815 198.561 C 63.478 201.330, 53.317 212.266, 51.431 220.500 C 50.011 226.697, 49.796 241.200, 51.055 245.846 C 53.990 256.672, 60.563 265.242, 68.500 268.589 C 80.358 273.590, 90.037 274.147, 103.192 270.587 C 112.381 268.100, 118.378 265.030, 120.013 261.976 C 120.556 260.962, 121 254.502, 121 247.622 C 121 231.526, 121.536 232, 103.349 232 C 88.757 232, 87 232.646, 87 238.015 C 87 242.482, 90.099 244, 99.223 244 L 107 244 107 249.555 L 107 255.111 101.250 257.748 C 89.736 263.029, 76.275 260.547, 70.694 252.113 C 66.936 246.435, 65.732 241.222, 66.137 232.375 C 66.613 221.967, 69.664 215.721, 76.263 211.641 C 86.825 205.111, 97.870 207.654, 104.576 218.161 C 108.543 224.376, 116.180 224.090, 119.130 217.615 C 120.346 214.945, 117.391 207.646, 113.700 204.202 C 110.195 200.932, 101.929 197.232, 96.500 196.503 C 93.750 196.134, 90.825 195.705, 90 195.550 C 89.175 195.394, 85.816 195.653, 82.536 196.124 M 137 195.709 C 136.175 196.013, 134.713 196.947, 133.750 197.785 C 132.146 199.183, 132 202.208, 132 233.981 L 132 268.651 134.314 270.826 C 136.569 272.944, 137.307 273, 162.742 273 L 188.855 273 190.945 270.343 C 192.297 268.624, 192.814 266.946, 192.410 265.593 C 190.957 260.727, 190.122 260.529, 168.717 260 L 148.500 259.500 148.215 249.250 L 147.930 239 165.965 239 C 182.667 239, 184.148 238.852, 186 237 C 188.590 234.410, 188.548 230.806, 185.898 228.405 C 184.026 226.709, 181.832 226.466, 165.860 226.186 L 147.924 225.873 148.212 217.186 L 148.500 208.500 168.100 208 C 190.179 207.437, 191.306 207.095, 190.801 201.109 C 190.315 195.351, 188.734 195.021, 162 195.094 C 149.075 195.129, 137.825 195.406, 137 195.709 M 223.224 196.914 C 215.705 199.701, 211.740 202.383, 206.463 208.252 C 198.442 217.173, 195.280 226.387, 196.341 237.746 C 197.670 251.977, 206.445 264.130, 219.797 270.231 C 225.599 272.883, 227.642 273.294, 235 273.294 C 253.889 273.293, 266.970 264.460, 273.174 247.514 C 275.493 241.181, 275.472 239.323, 273.066 238.035 C 270.323 236.568, 264.376 236.753, 261.200 238.405 C 257.016 240.582, 254.406 243.894, 250.884 251.500 C 249.101 255.350, 246.987 259.527, 246.185 260.782 C 244.809 262.937, 244.624 262.970, 242.864 261.377 C 239.930 258.722, 240.398 252.763, 243.853 248.785 C 247.348 244.762, 249.140 241.474, 248.298 240.631 C 247.177 239.511, 241.977 239.960, 239.200 241.418 C 237.715 242.197, 234.721 244.672, 232.547 246.918 C 227.935 251.680, 225.922 251.988, 223.073 248.365 C 218.736 242.852, 221.624 239, 230.094 239 C 236.637 239, 242.101 236.390, 243.449 232.622 C 244.181 230.572, 244.021 229.592, 242.742 228.313 C 241.328 226.900, 240.515 226.829, 237.177 227.829 C 231.729 229.461, 224.460 229.289, 220.891 227.444 C 218.367 226.139, 217.932 225.377, 218.191 222.725 C 218.443 220.145, 219.080 219.398, 221.654 218.665 C 224.189 217.942, 226.564 218.394, 233.766 220.971 C 238.693 222.733, 243.794 224.023, 245.102 223.838 C 249.230 223.251, 248.418 220.503, 242.799 216.040 C 237.099 211.514, 234.670 208.022, 235.577 205.660 C 236.830 202.395, 243.954 202.830, 246.875 206.350 C 247.587 207.207, 249.652 211.004, 251.466 214.788 C 255.080 222.330, 258.219 225.386, 264.189 227.175 C 268.826 228.564, 273.302 227.386, 273.832 224.636 C 274.473 221.305, 268.188 210.355, 262.912 205.610 C 254.924 198.429, 248.188 195.694, 237.500 195.294 C 230.421 195.030, 227.374 195.375, 223.224 196.914 M 284.455 197.455 L 282 199.909 282 233.866 L 282 267.822 285.077 270.411 C 288.769 273.518, 289.550 273.572, 293.750 271.011 L 297 269.029 297 258.953 L 297 248.877 303.034 242.806 C 306.352 239.466, 309.235 236.906, 309.440 237.117 C 309.896 237.585, 323.399 258.258, 327.361 264.553 C 328.934 267.053, 331.355 269.842, 332.740 270.749 C 337.972 274.178, 346.031 271.649, 345.978 266.595 C 345.940 262.940, 342.558 256.831, 334.098 245.133 C 329.577 238.881, 324.817 232.087, 323.521 230.033 L 321.164 226.300 331.582 215.918 C 340.466 207.064, 342 205.065, 342 202.340 C 342 198.830, 338.252 195, 334.815 195 C 331.922 195, 327.435 197.627, 325.027 200.730 C 321.353 205.465, 298.736 227.955, 298.066 227.541 C 297.716 227.325, 297.322 220.927, 297.189 213.324 C 296.954 199.938, 296.866 199.429, 294.418 197.250 C 291.126 194.322, 287.513 194.396, 284.455 197.455 M 368.405 197.612 C 352.267 202.547, 342.797 220.679, 345.755 240.976 C 348.630 260.698, 359.653 271.182, 379.139 272.726 C 394.872 273.974, 409.188 266.743, 414.758 254.736 C 417.679 248.440, 419.361 237.796, 418.648 230.122 C 417.193 214.466, 411.752 205.465, 400.351 199.852 C 394.251 196.849, 392.667 196.514, 383.558 196.295 C 376.681 196.130, 371.889 196.546, 368.405 197.612 M 229.650 198.049 C 222.260 199.289, 214.834 203.425, 209.085 209.504 C 201.279 217.758, 199.500 222.396, 199.500 234.500 C 199.500 243.642, 199.757 245.003, 202.500 250.362 C 207.050 259.252, 215.354 266.442, 224.162 269.118 C 243.152 274.886, 263.474 265.713, 269.929 248.459 C 272.875 240.585, 272.735 240, 267.904 240 C 260.971 240, 258.414 242.347, 252.650 254 C 248.219 262.960, 247.074 264.545, 244.845 264.805 C 241.295 265.220, 238 260.985, 238 256.009 C 238 253.296, 238.948 251.046, 241.500 247.704 C 243.425 245.183, 245 242.879, 245 242.585 C 245 241.037, 238.923 244.729, 234.347 249.056 C 231.472 251.775, 228.620 254, 228.010 254 C 225.930 254, 221.062 250.984, 220.030 249.055 C 218.602 246.387, 218.743 241.734, 220.316 239.582 C 221.222 238.343, 224.204 237.370, 229.879 236.461 C 238.353 235.105, 241 233.867, 241 231.261 C 241 230.196, 240.353 229.943, 238.750 230.380 C 232.225 232.159, 225.870 232.222, 221.492 230.550 C 214.852 228.014, 212.764 222.161, 217.069 218.150 C 220.650 214.814, 224.352 214.785, 233.217 218.020 C 237.708 219.659, 242.013 221, 242.782 221 C 243.552 221, 241.666 218.621, 238.591 215.713 C 234.175 211.537, 233 209.783, 233 207.368 C 233 203.290, 235.735 201, 240.606 201 C 246.166 201, 248.498 203.049, 252.925 211.825 C 257.787 221.465, 260.521 224.079, 266.438 224.746 C 271.928 225.365, 272.225 224.325, 268.584 217.217 C 263.799 207.874, 253.013 200.089, 241.949 197.990 C 236.197 196.899, 236.510 196.898, 229.650 198.049 M 376.723 209.093 C 371.118 210.409, 367.268 213.756, 364.221 219.959 C 361.908 224.670, 361.500 226.773, 361.500 234 C 361.500 241.294, 361.899 243.313, 364.312 248.226 C 368.729 257.221, 376.063 261.324, 385.156 259.886 C 391.633 258.862, 396.317 255.257, 399.705 248.688 C 402.022 244.196, 402.381 242.293, 402.385 234.500 C 402.388 226.558, 402.043 224.795, 399.444 219.500 C 397.002 214.523, 395.733 213.132, 392 211.343 C 386.389 208.652, 381.602 207.947, 376.723 209.093 M 431.788 250.150 C 428.100 251.498, 425 256.818, 425 261.797 C 425 265.018, 425.683 266.582, 428.304 269.360 C 430.121 271.287, 432.824 273.169, 434.310 273.542 C 441.968 275.464, 450 269.512, 450 261.916 C 450 251.931, 441.657 246.541, 431.788 250.150 M 188.776 289.557 C 188.470 289.863, 189.295 293.079, 190.610 296.704 C 191.924 300.328, 193 303.453, 193 303.647 C 193 303.841, 193.367 304, 193.815 304 C 194.263 304, 195.436 302.313, 196.422 300.250 L 198.215 296.500 199.714 300.250 C 200.539 302.313, 201.604 304, 202.081 304 C 203.775 304, 208.950 290.617, 207.728 289.395 C 206.588 288.255, 205.047 290.110, 203.869 294.042 C 203.217 296.219, 202.403 298, 202.061 298 C 201.719 298, 200.929 296.649, 200.305 294.998 C 198.963 291.443, 196.813 291.786, 195.408 295.781 C 194.463 298.467, 194.445 298.453, 192.646 293.743 C 190.928 289.245, 190.044 288.289, 188.776 289.557 M 224.655 290.829 C 222.410 293.310, 222.468 300.233, 224.750 302.193 C 227.649 304.683, 229.978 305.063, 232.942 303.530 C 237.288 301.282, 238.458 295.527, 235.443 291.223 C 233.440 288.363, 227.096 288.131, 224.655 290.829 M 253.206 296.250 C 253.375 300.408, 253.926 303.410, 254.500 303.290 C 255.050 303.174, 255.644 302.161, 255.820 301.040 C 256.303 297.957, 260.780 298.290, 262 301.500 C 262.523 302.875, 263.330 304, 263.795 304 C 264.841 304, 264.721 291.966, 263.657 290.250 C 263.205 289.521, 260.805 289, 257.897 289 L 252.912 289 253.206 296.250 M 281.206 296.250 C 281.374 300.396, 281.928 303.416, 282.500 303.303 C 283.050 303.194, 283.656 302.294, 283.847 301.303 C 284.515 297.836, 285.881 297.705, 288.533 300.856 C 293.106 306.291, 294.853 304.296, 290.508 298.600 L 288.017 295.333 290.508 292.992 C 291.879 291.705, 293 290.280, 293 289.826 C 293 288.076, 290.458 289.133, 287.298 292.196 L 284 295.392 284 292.196 C 284 289.981, 283.526 289, 282.456 289 C 281.179 289, 280.963 290.254, 281.206 296.250 M 309.667 289.667 C 309.300 290.033, 309 291.602, 309 293.153 C 309 295.431, 309.673 296.254, 312.500 297.436 C 314.425 298.240, 316 299.385, 316 299.980 C 316 301.671, 313.363 302.265, 311.139 301.074 C 308.006 299.398, 307.522 301.641, 310.583 303.647 C 312.961 305.205, 313.499 305.231, 315.865 303.902 C 319.858 301.661, 319.556 297.040, 315.322 295.589 C 313.574 294.990, 311.787 294.138, 311.351 293.696 C 310.056 292.382, 313.188 291.088, 316.203 291.691 C 319.178 292.286, 320.132 290.649, 317.418 289.607 C 315.307 288.797, 310.500 288.834, 309.667 289.667 M 227.566 292.328 C 224.373 294.663, 225.879 302, 229.551 302 C 233.567 302, 235.375 295.554, 232.171 292.655 C 229.966 290.659, 229.859 290.652, 227.566 292.328 M 256 294.066 C 256 295.729, 256.535 296.071, 258.741 295.816 C 260.395 295.626, 261.615 294.805, 261.815 293.750 C 262.073 292.391, 261.460 292, 259.073 292 C 256.634 292, 256 292.426, 256 294.066" stroke="none" fill="#050704" fill-rule="evenodd"/></svg>